<mxfile host="app.diagrams.net" modified="2023-08-21T11:41:05.835Z" agent="Mozilla/5.0 (Windows NT 10.0; Win64; x64) AppleWebKit/537.36 (KHTML, like Gecko) Chrome/115.0.0.0 Safari/537.36" etag="6xKJnR-hyF3mj3SNPen0" version="21.6.8" type="device">
  <diagram name="Page-1" id="-rfxfrpeROrcTsnwMtSD">
    <mxGraphModel dx="2022" dy="692" grid="1" gridSize="10" guides="1" tooltips="1" connect="1" arrows="1" fold="1" page="1" pageScale="1" pageWidth="827" pageHeight="1169" math="0" shadow="0">
      <root>
        <mxCell id="0" />
        <mxCell id="1" parent="0" />
        <mxCell id="Np3-bTupf37_erTmgCgE-66" value="" style="rounded=0;whiteSpace=wrap;html=1;fillColor=#f5f5f5;strokeColor=#666666;gradientColor=#b3b3b3;" vertex="1" parent="1">
          <mxGeometry x="-130" y="20" width="1020" height="740" as="geometry" />
        </mxCell>
        <mxCell id="Np3-bTupf37_erTmgCgE-42" value="" style="ellipse;whiteSpace=wrap;html=1;fillColor=#f8cecc;strokeColor=#b85450;" vertex="1" parent="1">
          <mxGeometry x="388.99999999999994" y="460" width="353.17" height="160" as="geometry" />
        </mxCell>
        <mxCell id="Np3-bTupf37_erTmgCgE-34" value="" style="ellipse;whiteSpace=wrap;html=1;fillColor=#ffe6cc;strokeColor=#d79b00;movable=1;resizable=1;rotatable=1;deletable=1;editable=1;locked=0;connectable=1;" vertex="1" parent="1">
          <mxGeometry x="255.57999999999998" y="80" width="620" height="370" as="geometry" />
        </mxCell>
        <mxCell id="Np3-bTupf37_erTmgCgE-6" value="" style="sketch=0;outlineConnect=0;fontColor=#232F3E;gradientColor=none;fillColor=#232F3D;strokeColor=none;dashed=0;verticalLabelPosition=bottom;verticalAlign=top;align=center;html=1;fontSize=12;fontStyle=0;aspect=fixed;pointerEvents=1;shape=mxgraph.aws4.traditional_server;" vertex="1" parent="1">
          <mxGeometry x="87.5" y="220" width="45" height="78" as="geometry" />
        </mxCell>
        <mxCell id="Np3-bTupf37_erTmgCgE-7" value="&lt;font style=&quot;font-size: 19px;&quot;&gt;&lt;b&gt;GRP1-NODE1&lt;/b&gt;&lt;/font&gt;" style="text;html=1;align=center;verticalAlign=middle;resizable=0;points=[];autosize=1;strokeColor=none;fillColor=none;" vertex="1" parent="1">
          <mxGeometry x="35" y="150" width="150" height="40" as="geometry" />
        </mxCell>
        <mxCell id="Np3-bTupf37_erTmgCgE-8" value="&lt;font style=&quot;font-size: 17px;&quot;&gt;&lt;span style=&quot;font-size: 17px;&quot;&gt;PROXMOX&lt;/span&gt;&lt;/font&gt;" style="text;html=1;align=center;verticalAlign=middle;resizable=0;points=[];autosize=1;strokeColor=none;fillColor=none;fontStyle=3;fontSize=17;" vertex="1" parent="1">
          <mxGeometry x="58.18" y="190" width="110" height="30" as="geometry" />
        </mxCell>
        <mxCell id="Np3-bTupf37_erTmgCgE-21" value="&lt;font style=&quot;font-size: 14px;&quot;&gt;&lt;b&gt;&lt;i&gt;CRM&lt;/i&gt;&lt;/b&gt;&lt;/font&gt;" style="image;sketch=0;aspect=fixed;html=1;points=[];align=center;fontSize=12;image=img/lib/mscae/VM_Linux.svg;movable=1;resizable=1;rotatable=1;deletable=1;editable=1;locked=0;connectable=1;" vertex="1" parent="1">
          <mxGeometry x="389" y="224" width="50" height="46" as="geometry" />
        </mxCell>
        <mxCell id="Np3-bTupf37_erTmgCgE-22" value="&lt;font style=&quot;font-size: 15px;&quot;&gt;&lt;b&gt;INTRANET&lt;/b&gt;&lt;/font&gt;" style="image;sketch=0;aspect=fixed;html=1;points=[];align=center;fontSize=12;image=img/lib/mscae/VM_Linux.svg;movable=1;resizable=1;rotatable=1;deletable=1;editable=1;locked=0;connectable=1;" vertex="1" parent="1">
          <mxGeometry x="490" y="220" width="50" height="46" as="geometry" />
        </mxCell>
        <mxCell id="Np3-bTupf37_erTmgCgE-23" value="&lt;font style=&quot;font-size: 14px;&quot;&gt;&lt;b&gt;SIEM&lt;/b&gt;&lt;/font&gt;" style="image;sketch=0;aspect=fixed;html=1;points=[];align=center;fontSize=12;image=img/lib/mscae/VM_Linux.svg;movable=1;resizable=1;rotatable=1;deletable=1;editable=1;locked=0;connectable=1;" vertex="1" parent="1">
          <mxGeometry x="389" y="142" width="52.17" height="48" as="geometry" />
        </mxCell>
        <mxCell id="Np3-bTupf37_erTmgCgE-25" value="&lt;font style=&quot;font-size: 14px;&quot;&gt;&lt;b&gt;GLPI&lt;/b&gt;&lt;/font&gt;" style="image;sketch=0;aspect=fixed;html=1;points=[];align=center;fontSize=12;image=img/lib/mscae/VM_Linux.svg;movable=1;resizable=1;rotatable=1;deletable=1;editable=1;locked=0;connectable=1;" vertex="1" parent="1">
          <mxGeometry x="490" y="305" width="50" height="46" as="geometry" />
        </mxCell>
        <mxCell id="Np3-bTupf37_erTmgCgE-26" value="&lt;font style=&quot;font-size: 14px;&quot;&gt;&lt;b&gt;MONITORING&lt;/b&gt;&lt;/font&gt;" style="image;sketch=0;aspect=fixed;html=1;points=[];align=center;fontSize=12;image=img/lib/mscae/VM_Linux.svg;movable=1;resizable=1;rotatable=1;deletable=1;editable=1;locked=0;connectable=1;" vertex="1" parent="1">
          <mxGeometry x="490" y="142" width="50" height="46" as="geometry" />
        </mxCell>
        <mxCell id="Np3-bTupf37_erTmgCgE-27" value="&lt;font style=&quot;font-size: 14px;&quot;&gt;&lt;b&gt;MESSAGERIE&lt;/b&gt;&lt;/font&gt;" style="image;sketch=0;aspect=fixed;html=1;points=[];align=center;fontSize=12;image=img/lib/mscae/VM_Linux.svg;movable=1;resizable=1;rotatable=1;deletable=1;editable=1;locked=0;connectable=1;" vertex="1" parent="1">
          <mxGeometry x="600" y="221" width="50" height="46" as="geometry" />
        </mxCell>
        <mxCell id="Np3-bTupf37_erTmgCgE-28" value="&lt;font style=&quot;font-size: 14px;&quot;&gt;&lt;b&gt;PROD&lt;/b&gt;&lt;/font&gt;" style="image;sketch=0;aspect=fixed;html=1;points=[];align=center;fontSize=12;image=img/lib/mscae/VM_Linux.svg;movable=1;resizable=1;rotatable=1;deletable=1;editable=1;locked=0;connectable=1;" vertex="1" parent="1">
          <mxGeometry x="600" y="305" width="50" height="46" as="geometry" />
        </mxCell>
        <mxCell id="Np3-bTupf37_erTmgCgE-30" value="&lt;font style=&quot;font-size: 14px;&quot;&gt;&lt;b&gt;CENTREON&lt;/b&gt;&lt;/font&gt;" style="image;sketch=0;aspect=fixed;html=1;points=[];align=center;fontSize=12;image=img/lib/mscae/VM_Linux.svg;movable=1;resizable=1;rotatable=1;deletable=1;editable=1;locked=0;connectable=1;" vertex="1" parent="1">
          <mxGeometry x="600" y="140" width="52.17" height="48" as="geometry" />
        </mxCell>
        <mxCell id="Np3-bTupf37_erTmgCgE-31" value="&lt;font style=&quot;font-size: 14px;&quot;&gt;&lt;b&gt;PFSENE&lt;/b&gt;&lt;/font&gt;" style="image;sketch=0;aspect=fixed;html=1;points=[];align=center;fontSize=12;image=img/lib/mscae/VM_Linux.svg;movable=1;resizable=1;rotatable=1;deletable=1;editable=1;locked=0;connectable=1;" vertex="1" parent="1">
          <mxGeometry x="696.4499999999999" y="309" width="50" height="46" as="geometry" />
        </mxCell>
        <mxCell id="Np3-bTupf37_erTmgCgE-33" value="&lt;font style=&quot;font-size: 14px;&quot;&gt;&lt;b&gt;MAITRE&lt;/b&gt;&lt;/font&gt;" style="image;sketch=0;aspect=fixed;html=1;points=[];align=center;fontSize=12;image=img/lib/mscae/VM_Linux.svg;movable=1;resizable=1;rotatable=1;deletable=1;editable=1;locked=0;connectable=1;" vertex="1" parent="1">
          <mxGeometry x="388.99999999999994" y="305" width="50" height="46" as="geometry" />
        </mxCell>
        <mxCell id="Np3-bTupf37_erTmgCgE-36" value="VLAN 20" style="text;html=1;align=center;verticalAlign=middle;resizable=1;points=[];autosize=1;strokeColor=#d79b00;fillColor=#ffe6cc;fontStyle=3;fontSize=20;movable=1;rotatable=1;deletable=1;editable=1;locked=0;connectable=1;" vertex="1" parent="1">
          <mxGeometry x="520" y="400" width="110" height="40" as="geometry" />
        </mxCell>
        <mxCell id="Np3-bTupf37_erTmgCgE-55" value="" style="edgeStyle=orthogonalEdgeStyle;rounded=0;orthogonalLoop=1;jettySize=auto;html=1;" edge="1" parent="1" source="Np3-bTupf37_erTmgCgE-37" target="Np3-bTupf37_erTmgCgE-53">
          <mxGeometry relative="1" as="geometry" />
        </mxCell>
        <mxCell id="Np3-bTupf37_erTmgCgE-37" value="" style="sketch=0;aspect=fixed;pointerEvents=1;shadow=0;dashed=0;html=1;strokeColor=none;labelPosition=center;verticalLabelPosition=bottom;verticalAlign=top;align=center;fillColor=#00188D;shape=mxgraph.mscae.enterprise.firewall" vertex="1" parent="1">
          <mxGeometry x="73.75" y="460" width="62.5" height="55" as="geometry" />
        </mxCell>
        <mxCell id="Np3-bTupf37_erTmgCgE-38" value="" style="image;html=1;image=img/lib/clip_art/networking/Switch_128x128.png" vertex="1" parent="1">
          <mxGeometry x="70" y="330" width="80" height="80" as="geometry" />
        </mxCell>
        <mxCell id="Np3-bTupf37_erTmgCgE-40" value="" style="endArrow=none;dashed=1;html=1;dashPattern=1 3;strokeWidth=2;rounded=0;exitX=0.5;exitY=0;exitDx=0;exitDy=0;" edge="1" parent="1" source="Np3-bTupf37_erTmgCgE-38" target="Np3-bTupf37_erTmgCgE-6">
          <mxGeometry width="50" height="50" relative="1" as="geometry">
            <mxPoint x="60" y="348" as="sourcePoint" />
            <mxPoint x="110" y="310" as="targetPoint" />
          </mxGeometry>
        </mxCell>
        <mxCell id="Np3-bTupf37_erTmgCgE-41" value="" style="endArrow=none;dashed=1;html=1;dashPattern=1 3;strokeWidth=2;rounded=0;exitX=0.5;exitY=0;exitDx=0;exitDy=0;exitPerimeter=0;" edge="1" parent="1" source="Np3-bTupf37_erTmgCgE-37">
          <mxGeometry width="50" height="50" relative="1" as="geometry">
            <mxPoint x="80" y="480" as="sourcePoint" />
            <mxPoint x="105" y="400" as="targetPoint" />
            <Array as="points" />
          </mxGeometry>
        </mxCell>
        <mxCell id="Np3-bTupf37_erTmgCgE-43" value="" style="shape=image;html=1;verticalAlign=top;verticalLabelPosition=bottom;labelBackgroundColor=#ffffff;imageAspect=0;aspect=fixed;image=https://cdn0.iconfinder.com/data/icons/luisance_pack/128/ordinateur_portable_eteint.png" vertex="1" parent="1">
          <mxGeometry x="582.01" y="516" width="48" height="48" as="geometry" />
        </mxCell>
        <mxCell id="Np3-bTupf37_erTmgCgE-47" value="MACHINES VIRTUELLES" style="text;html=1;align=center;verticalAlign=middle;resizable=0;points=[];autosize=1;strokeColor=none;fillColor=none;fontSize=17;fontStyle=3" vertex="1" parent="1">
          <mxGeometry x="473.41" y="97" width="220" height="30" as="geometry" />
        </mxCell>
        <mxCell id="Np3-bTupf37_erTmgCgE-48" value="&lt;font style=&quot;font-size: 14px;&quot;&gt;&lt;b&gt;VAULT&lt;/b&gt;&lt;/font&gt;" style="image;sketch=0;aspect=fixed;html=1;points=[];align=center;fontSize=12;image=img/lib/mscae/VM_Linux.svg;movable=1;resizable=1;rotatable=1;deletable=1;editable=1;locked=0;connectable=1;" vertex="1" parent="1">
          <mxGeometry x="780" y="220" width="50" height="46" as="geometry" />
        </mxCell>
        <mxCell id="Np3-bTupf37_erTmgCgE-49" value="" style="shape=image;html=1;verticalAlign=top;verticalLabelPosition=bottom;labelBackgroundColor=#ffffff;imageAspect=0;aspect=fixed;image=https://cdn0.iconfinder.com/data/icons/luisance_pack/128/ordinateur_portable_eteint.png" vertex="1" parent="1">
          <mxGeometry x="520.18" y="516" width="48" height="48" as="geometry" />
        </mxCell>
        <mxCell id="Np3-bTupf37_erTmgCgE-50" value="" style="shape=image;html=1;verticalAlign=top;verticalLabelPosition=bottom;labelBackgroundColor=#ffffff;imageAspect=0;aspect=fixed;image=https://cdn0.iconfinder.com/data/icons/luisance_pack/128/ordinateur_portable_eteint.png" vertex="1" parent="1">
          <mxGeometry x="459.17999999999995" y="516" width="48" height="48" as="geometry" />
        </mxCell>
        <mxCell id="Np3-bTupf37_erTmgCgE-51" value="" style="shape=image;html=1;verticalAlign=top;verticalLabelPosition=bottom;labelBackgroundColor=#ffffff;imageAspect=0;aspect=fixed;image=https://cdn0.iconfinder.com/data/icons/luisance_pack/128/ordinateur_portable_eteint.png" vertex="1" parent="1">
          <mxGeometry x="638.18" y="516" width="48" height="48" as="geometry" />
        </mxCell>
        <mxCell id="Np3-bTupf37_erTmgCgE-52" value="VLAN 10" style="text;html=1;align=center;verticalAlign=middle;resizable=0;points=[];autosize=1;strokeColor=#b85450;fillColor=#f8cecc;fontStyle=3;fontSize=20;" vertex="1" parent="1">
          <mxGeometry x="520" y="569" width="110" height="40" as="geometry" />
        </mxCell>
        <mxCell id="Np3-bTupf37_erTmgCgE-53" value="" style="image;aspect=fixed;perimeter=ellipsePerimeter;html=1;align=center;shadow=0;dashed=0;spacingTop=3;image=img/lib/active_directory/internet_cloud.svg;" vertex="1" parent="1">
          <mxGeometry x="58.18" y="585" width="93.65" height="59" as="geometry" />
        </mxCell>
        <mxCell id="Np3-bTupf37_erTmgCgE-54" value="SWITCH 3750 L2" style="text;html=1;align=center;verticalAlign=middle;resizable=0;points=[];autosize=1;strokeColor=none;fillColor=none;fontSize=17;fontStyle=3" vertex="1" parent="1">
          <mxGeometry x="-86.25" y="355" width="160" height="30" as="geometry" />
        </mxCell>
        <mxCell id="Np3-bTupf37_erTmgCgE-56" value="&lt;span&gt;&lt;span&gt;&lt;font style=&quot;font-size: 17px;&quot;&gt;PFSENSE&lt;/font&gt;&lt;/span&gt;&lt;/span&gt;" style="text;html=1;align=center;verticalAlign=middle;resizable=0;points=[];autosize=1;strokeColor=none;fillColor=none;fontStyle=3" vertex="1" parent="1">
          <mxGeometry x="-50" y="468" width="100" height="30" as="geometry" />
        </mxCell>
        <mxCell id="Np3-bTupf37_erTmgCgE-57" value="INTERNET" style="text;html=1;align=center;verticalAlign=middle;resizable=0;points=[];autosize=1;strokeColor=none;fillColor=none;fontSize=17;fontStyle=3" vertex="1" parent="1">
          <mxGeometry x="-55" y="601.5" width="110" height="30" as="geometry" />
        </mxCell>
        <mxCell id="Np3-bTupf37_erTmgCgE-58" value="PC CLIENT" style="text;html=1;align=center;verticalAlign=middle;resizable=0;points=[];autosize=1;strokeColor=none;fillColor=none;fontStyle=3;fontSize=17;" vertex="1" parent="1">
          <mxGeometry x="520.01" y="474" width="110" height="30" as="geometry" />
        </mxCell>
        <mxCell id="Np3-bTupf37_erTmgCgE-61" value="" style="endArrow=none;dashed=1;html=1;dashPattern=1 3;strokeWidth=2;rounded=0;entryX=-0.002;entryY=0.481;entryDx=0;entryDy=0;entryPerimeter=0;" edge="1" parent="1" target="Np3-bTupf37_erTmgCgE-34">
          <mxGeometry width="50" height="50" relative="1" as="geometry">
            <mxPoint x="136.25" y="254" as="sourcePoint" />
            <mxPoint x="186.25" y="204" as="targetPoint" />
          </mxGeometry>
        </mxCell>
        <mxCell id="Np3-bTupf37_erTmgCgE-63" value="" style="endArrow=none;dashed=1;html=1;dashPattern=1 3;strokeWidth=2;rounded=0;entryX=0;entryY=0.5;entryDx=0;entryDy=0;" edge="1" parent="1" target="Np3-bTupf37_erTmgCgE-42">
          <mxGeometry width="50" height="50" relative="1" as="geometry">
            <mxPoint x="150" y="370" as="sourcePoint" />
            <mxPoint x="200" y="320" as="targetPoint" />
          </mxGeometry>
        </mxCell>
        <mxCell id="Np3-bTupf37_erTmgCgE-65" value="Lien FTTH Free" style="text;html=1;align=center;verticalAlign=middle;resizable=0;points=[];autosize=1;strokeColor=none;fillColor=none;fontStyle=3;fontSize=17;" vertex="1" parent="1">
          <mxGeometry x="30" y="650" width="150" height="30" as="geometry" />
        </mxCell>
        <mxCell id="Np3-bTupf37_erTmgCgE-69" value="&lt;font style=&quot;font-size: 14px;&quot;&gt;REPLI AD&lt;/font&gt;" style="image;sketch=0;aspect=fixed;html=1;points=[];align=center;fontSize=12;image=img/lib/mscae/VirtualMachineWindows.svg;fontStyle=1" vertex="1" parent="1">
          <mxGeometry x="696.4499999999999" y="223" width="43.48" height="40" as="geometry" />
        </mxCell>
        <mxCell id="Np3-bTupf37_erTmgCgE-73" value="&lt;font style=&quot;font-size: 14px;&quot;&gt;AD&lt;/font&gt;" style="image;sketch=0;aspect=fixed;html=1;points=[];align=center;fontSize=12;image=img/lib/mscae/VirtualMachineWindows.svg;fontStyle=1" vertex="1" parent="1">
          <mxGeometry x="689.93" y="141" width="50" height="46" as="geometry" />
        </mxCell>
        <mxCell id="Np3-bTupf37_erTmgCgE-74" value="&amp;nbsp;PROLIANT DL360 GEN 9" style="text;html=1;align=center;verticalAlign=middle;resizable=0;points=[];autosize=1;strokeColor=none;fillColor=none;fontSize=17;fontStyle=3" vertex="1" parent="1">
          <mxGeometry x="-142.5" y="244" width="230" height="30" as="geometry" />
        </mxCell>
      </root>
    </mxGraphModel>
  </diagram>
</mxfile>
